<svg width="1000" height="700" viewBox="0 0 655 414" fill="none" xmlns="http://www.w3.org/2000/svg">
<path d="M518 315H137C136.735 315 136.48 314.895 136.293 314.707C136.105 314.52 136 314.265 136 314C136 313.735 136.105 313.48 136.293 313.293C136.48 313.105 136.735 313 137 313H518C518.265 313 518.52 313.105 518.707 313.293C518.895 313.48 519 313.735 519 314C519 314.265 518.895 314.52 518.707 314.707C518.52 314.895 518.265 315 518 315Z" fill="#3F3D56"/>
<path d="M335 180C349.912 180 362 168.359 362 154C362 139.641 349.912 128 335 128C320.088 128 308 139.641 308 154C308 168.359 320.088 180 335 180Z" fill="#2F2E41"/>
<path d="M309.405 330.326L308.69 318.088L355.556 309.503L356.612 327.567L309.405 330.326Z" fill="#FFB8B8"/>
<path d="M311.675 309.141L313.055 332.745L298.194 333.613L295.945 295.148C297.897 295.034 299.852 295.306 301.699 295.947C303.545 296.589 305.248 297.587 306.708 298.887C308.169 300.186 309.359 301.761 310.212 303.52C311.064 305.279 311.561 307.189 311.675 309.141Z" fill="#2F2E41"/>
<path d="M329.789 330.214L322.004 339.685L281.768 314.166L293.257 300.188L329.789 330.214Z" fill="#FFB8B8"/>
<path d="M313.737 344.226L328.751 325.96L340.251 335.413L315.785 365.179C314.275 363.938 313.024 362.411 312.104 360.687C311.184 358.962 310.612 357.073 310.422 355.127C310.232 353.181 310.427 351.217 310.996 349.347C311.564 347.476 312.496 345.736 313.737 344.226Z" fill="#2F2E41"/>
<path d="M307.387 286.17L302.067 311.249C301.944 311.826 301.951 312.424 302.087 312.998C302.223 313.573 302.484 314.11 302.852 314.572C303.219 315.033 303.685 315.408 304.215 315.668C304.744 315.929 305.325 316.069 305.915 316.078L358.213 316.922C358.803 316.931 359.387 316.81 359.924 316.568C360.462 316.325 360.939 315.967 361.321 315.518C361.704 315.069 361.982 314.542 362.137 313.973C362.292 313.404 362.319 312.808 362.217 312.227L357.642 286.305C357.479 285.379 356.994 284.54 356.274 283.936C355.554 283.331 354.643 283 353.703 283H311.3C310.383 283 309.494 283.315 308.782 283.892C308.069 284.469 307.577 285.273 307.387 286.17Z" fill="#2F2E41"/>
<path d="M316.059 295C316.059 295 265.059 263 255.059 280C250.059 288.5 252.559 296.75 256.309 302.875C259.789 308.452 264.785 312.923 270.712 315.766L312.059 336L327.059 320L317.059 311L316.059 295Z" fill="#2F2E41"/>
<path d="M342.059 290C342.059 290 408.059 271 395.059 307C382.059 343 333.059 329 333.059 329L328.059 314L345.059 302L342.059 290Z" fill="#2F2E41"/>
<path d="M335 190C349.912 190 362 178.583 362 164.5C362 150.417 349.912 139 335 139C320.088 139 308 150.417 308 164.5C308 178.583 320.088 190 335 190Z" fill="#FFB8B8"/>
<path d="M336.685 293.969C326.479 293.814 316.325 292.477 306.427 289.982L306.135 289.902L292.429 226.857C291.196 221.317 292.035 215.518 294.786 210.554C297.537 205.59 302.011 201.805 307.362 199.914C323.892 193.983 341.908 193.624 358.662 198.89C364.283 200.701 369.015 204.566 371.913 209.712C374.811 214.858 375.663 220.908 374.297 226.654L358.989 289.85L358.773 289.952C352.411 292.966 344.456 293.969 336.685 293.969Z" fill="#C1C0F2"/>
<path d="M318.274 298.866C318.772 297.483 319.567 296.226 320.603 295.183C321.64 294.14 322.892 293.337 324.272 292.831C325.652 292.324 327.126 292.127 328.591 292.251C330.056 292.376 331.475 292.821 332.75 293.554L359.736 270.13L362.178 288.538L336.177 307.96C334.804 310.019 332.723 311.503 330.328 312.131C327.934 312.758 325.393 312.486 323.186 311.365C320.98 310.244 319.261 308.352 318.355 306.049C317.45 303.745 317.421 301.19 318.274 298.866Z" fill="#FFB8B8"/>
<path d="M344.012 303.976C343.573 303.975 343.136 303.911 342.716 303.785C342.033 303.586 341.408 303.227 340.892 302.737C340.377 302.247 339.986 301.641 339.753 300.969L336.496 291.74C336.191 290.887 336.152 289.962 336.385 289.087C336.617 288.211 337.11 287.427 337.798 286.838L374.567 264.764L360.073 200.103L360.442 200.014C360.592 199.977 375.442 196.597 381.527 212.824C385.789 224.189 401.559 248.901 400.446 265.601C400.235 268.941 398.904 272.112 396.668 274.603C394.432 277.094 391.422 278.759 388.124 279.328L346.736 303.041C345.957 303.645 344.999 303.974 344.012 303.976Z" fill="#C1C0F2"/>
<path d="M348.136 296.673C347.638 295.289 346.843 294.032 345.807 292.989C344.771 291.946 343.519 291.144 342.139 290.637C340.759 290.131 339.284 289.933 337.819 290.058C336.355 290.183 334.935 290.628 333.661 291.36L306.674 267.936L304.233 286.344L330.234 305.767C331.607 307.826 333.688 309.31 336.082 309.937C338.476 310.565 341.017 310.292 343.224 309.171C345.431 308.05 347.15 306.159 348.055 303.855C348.96 301.552 348.989 298.996 348.136 296.673Z" fill="#FFB8B8"/>
<path d="M325.106 303.976C324.12 303.974 323.162 303.645 322.382 303.041L277.994 281.328C274.696 280.759 271.686 279.094 269.45 276.603C267.214 274.112 265.883 270.941 265.672 267.601C264.559 250.901 283.329 224.189 287.591 212.824C293.676 196.597 308.526 199.976 308.677 200.014L309.045 200.103L291.551 266.764L331.32 286.838C332.008 287.427 332.501 288.211 332.733 289.087C332.966 289.962 332.927 290.887 332.622 291.74L329.365 300.969C329.132 301.641 328.741 302.247 328.226 302.737C327.71 303.227 327.085 303.586 326.402 303.785C325.982 303.911 325.545 303.975 325.106 303.976Z" fill="#C1C0F2"/>
<path d="M378.059 314H289.059C287.203 313.998 285.424 313.26 284.112 311.947C282.799 310.635 282.061 308.856 282.059 307V258C282.061 256.144 282.799 254.365 284.112 253.053C285.424 251.74 287.203 251.002 289.059 251H378.059C379.915 251.002 381.694 251.74 383.006 253.053C384.319 254.365 385.057 256.144 385.059 258V307C385.057 308.856 384.319 310.635 383.006 311.947C381.694 313.26 379.915 313.998 378.059 314Z" fill="#FFE5EC"/>
<path d="M333.559 288.5C336.873 288.5 339.559 285.814 339.559 282.5C339.559 279.186 336.873 276.5 333.559 276.5C330.245 276.5 327.559 279.186 327.559 282.5C327.559 285.814 330.245 288.5 333.559 288.5Z" fill="white"/>
<path d="M308.434 163.037C306.978 159.345 309.366 154.944 312.909 153.156C316.452 151.367 320.728 151.707 324.518 152.886C327.703 153.877 330.687 155.412 333.795 156.625C336.858 157.982 340.204 158.578 343.547 158.362C346.862 157.987 350.16 156.129 351.517 153.082C352.922 149.923 351.966 146.068 349.801 143.373C347.498 140.767 344.517 138.851 341.19 137.838C333.882 135.263 325.441 135.188 318.657 138.93C311.873 142.673 307.263 150.641 308.665 158.26" fill="#2F2E41"/>
<path d="M168.662 303.318C169.898 290.013 173.31 277.001 178.763 264.801C180.283 261.406 181.955 258.086 183.781 254.84C183.873 254.671 183.895 254.472 183.843 254.286C183.791 254.101 183.668 253.943 183.502 253.845C183.335 253.748 183.138 253.719 182.95 253.765C182.763 253.81 182.601 253.927 182.498 254.09C175.858 265.911 171.207 278.743 168.73 292.073C168.041 295.795 167.523 299.544 167.176 303.318C167.088 304.271 168.575 304.265 168.662 303.318Z" fill="#E6E6E6"/>
<path d="M187.381 257.224C192.581 257.224 196.796 253.009 196.796 247.81C196.796 242.611 192.581 238.396 187.381 238.396C182.182 238.396 177.967 242.611 177.967 247.81C177.967 253.009 182.182 257.224 187.381 257.224Z" fill="#FFE5EC"/>
<path d="M169.625 303.569C170.427 294.937 172.641 286.495 176.178 278.581C177.164 276.378 178.249 274.224 179.434 272.119C179.493 272.008 179.507 271.88 179.474 271.759C179.44 271.639 179.36 271.536 179.252 271.473C179.144 271.41 179.016 271.391 178.895 271.421C178.773 271.45 178.668 271.526 178.601 271.632C174.294 279.301 171.276 287.625 169.669 296.273C169.222 298.688 168.886 301.12 168.661 303.569C168.604 304.186 169.569 304.182 169.625 303.569Z" fill="#E6E6E6"/>
<path d="M181.769 273.665C185.142 273.665 187.877 270.931 187.877 267.558C187.877 264.185 185.142 261.45 181.769 261.45C178.396 261.45 175.662 264.185 175.662 267.558C175.662 270.931 178.396 273.665 181.769 273.665Z" fill="#FFE5EC"/>
<path d="M168.408 302.992C163.731 295.693 160.285 287.675 158.206 279.259C157.629 276.916 157.159 274.55 156.798 272.162C156.777 272.038 156.709 271.928 156.609 271.854C156.508 271.779 156.382 271.747 156.258 271.764C156.134 271.781 156.022 271.845 155.944 271.943C155.866 272.041 155.83 272.166 155.842 272.29C157.163 280.986 159.904 289.406 163.955 297.213C165.088 299.392 166.319 301.516 167.648 303.585C167.983 304.107 168.741 303.511 168.408 302.992Z" fill="#E6E6E6"/>
<path d="M155.835 273.236C159.208 273.236 161.942 270.502 161.942 267.129C161.942 263.756 159.208 261.021 155.835 261.021C152.462 261.021 149.727 263.756 149.727 267.129C149.727 270.502 152.462 273.236 155.835 273.236Z" fill="#FFE5EC"/>
<path d="M149.659 308.396V296.396C149.66 295.203 150.134 294.059 150.978 293.215C151.822 292.372 152.966 291.897 154.159 291.896H182.159C183.352 291.897 184.495 292.372 185.339 293.215C186.183 294.059 186.657 295.203 186.659 296.396V308.396C186.657 309.589 186.183 310.733 185.339 311.576C184.495 312.42 183.352 312.894 182.159 312.896H154.159C152.966 312.894 151.822 312.42 150.978 311.576C150.134 310.733 149.66 309.589 149.659 308.396Z" fill="#F2F2F2"/>
<path d="M450.409 322.401C450.409 328.978 445.077 331.967 438.5 331.967C431.923 331.967 426.591 328.978 426.591 322.401C426.591 315.824 429.238 308.149 438.5 310.796C447.762 306.826 450.409 315.824 450.409 322.401Z" fill="#FF6584"/>
<path d="M437.92 313.877C437.457 313.878 437.009 313.71 436.661 313.404C436.313 313.099 436.088 312.677 436.029 312.218C435.635 308.936 433.461 302.51 432.545 299.899L432.545 299.898C432.452 299.639 432.424 299.361 432.462 299.088C432.501 298.815 432.604 298.556 432.765 298.332C432.919 298.132 433.113 297.967 433.335 297.847C433.557 297.727 433.802 297.656 434.054 297.638C434.305 297.62 434.558 297.655 434.795 297.741C435.032 297.828 435.248 297.964 435.428 298.14C435.59 298.309 435.715 298.509 435.795 298.729C435.876 298.949 435.91 299.182 435.897 299.416C435.717 302.767 438.16 308.181 439.632 311.11C439.771 311.386 439.84 311.692 439.835 312.001C439.83 312.31 439.749 312.614 439.601 312.885C439.452 313.156 439.24 313.387 438.982 313.558C438.725 313.729 438.429 313.835 438.122 313.866C438.055 313.874 437.987 313.877 437.92 313.877Z" fill="#3F3D56"/>
<path d="M446.732 306.485C450.866 303.102 447.623 296.178 442.449 297.507C441.752 297.673 441.111 298.016 440.585 298.501C437.411 301.499 436.919 309.17 436.919 309.17C436.919 309.17 442.524 309.93 446.732 306.485Z" fill="#3F3D56"/>
</svg>
