<?xml version="1.0" standalone="no"?>
<svg xmlns:xlink="http://www.w3.org/1999/xlink" id="wave" style="transform:rotate(180deg); transition: 0.3s" viewBox="0 0 1440 380" version="1.1" xmlns="http://www.w3.org/2000/svg"><defs><linearGradient id="sw-gradient-0" x1="0" x2="0" y1="1" y2="0"><stop stop-color="rgba(253.043, 248.65, 247.24, 1)" offset="0%"/><stop stop-color="rgba(255, 229, 236, 1)" offset="100%"/></linearGradient></defs><path style="transform:translate(0, 0px); opacity:1" fill="url(#sw-gradient-0)" d="M0,228L15,240.7C30,253,60,279,90,272.3C120,266,150,228,180,183.7C210,139,240,89,270,69.7C300,51,330,63,360,95C390,127,420,177,450,209C480,241,510,253,540,266C570,279,600,291,630,304C660,317,690,329,720,310.3C750,291,780,241,810,202.7C840,165,870,139,900,133C930,127,960,139,990,158.3C1020,177,1050,203,1080,215.3C1110,228,1140,228,1170,202.7C1200,177,1230,127,1260,133C1290,139,1320,203,1350,240.7C1380,279,1410,291,1440,297.7C1470,304,1500,304,1530,259.7C1560,215,1590,127,1620,120.3C1650,114,1680,190,1710,196.3C1740,203,1770,139,1800,95C1830,51,1860,25,1890,50.7C1920,76,1950,152,1980,209C2010,266,2040,304,2070,285C2100,266,2130,190,2145,152L2160,114L2160,380L2145,380C2130,380,2100,380,2070,380C2040,380,2010,380,1980,380C1950,380,1920,380,1890,380C1860,380,1830,380,1800,380C1770,380,1740,380,1710,380C1680,380,1650,380,1620,380C1590,380,1560,380,1530,380C1500,380,1470,380,1440,380C1410,380,1380,380,1350,380C1320,380,1290,380,1260,380C1230,380,1200,380,1170,380C1140,380,1110,380,1080,380C1050,380,1020,380,990,380C960,380,930,380,900,380C870,380,840,380,810,380C780,380,750,380,720,380C690,380,660,380,630,380C600,380,570,380,540,380C510,380,480,380,450,380C420,380,390,380,360,380C330,380,300,380,270,380C240,380,210,380,180,380C150,380,120,380,90,380C60,380,30,380,15,380L0,380Z"/></svg>